# xmcd
#
# Track frame offsets: 
#        150
#        17515
#        43477
#        73352
#
# Disc length: 1199 seconds
#
# Revision: 0
# Processed by: cddbd v1.5.2PL0 Copyright (c) Steve Scherf et al.
# Submitted via: ExactAudioCopy v0.99pb5
#
DISCID=3704ad04
DTITLE=Sugar Sisters - Sugar Sugar
DYEAR=1995
DGENRE=Electronic
TTITLE0=Sugar Sugar (Radiocut)
TTITLE1=Sugar Sugar (Clubmix)
TTITLE2=Sugar Sugar (Sugarboxmix)
TTITLE3=Hypnotised
EXTD=
EXTT0=
EXTT1=
EXTT2=
EXTT3=
PLAYORDER=
